# xmcd CD database file
#
# Track frame offsets:
#	150
#	21670
#	46233
#	69928
#	91157
#	116596
#	145478
#
# Disc length: 2199 seconds
#
# Revision: 0
# Processed by: cddbd v1.5.2PL0 Copyright (c) Steve Scherf et al.
# Submitted via: CDex 1.51
#
DISCID=5d089507
DTITLE=Post Image - Mandragore
DYEAR=2011
DGENRE=Jazz
TTITLE0=Mandragore
TTITLE1=Mobile
TTITLE2=Nocdiurne
TTITLE3=Carpe Diem
TTITLE4=The One
TTITLE5=Temine
TTITLE6=Sens Caché
EXTD=YEAR: 2011
EXTT0=
EXTT1=
EXTT2=
EXTT3=
EXTT4=
EXTT5=
EXTT6=
PLAYORDER=
